<svg width="104" height="104" viewBox="0 0 104 104" fill="none" xmlns="http://www.w3.org/2000/svg">
<g id="Calendar" clip-path="url(#clip0_1314_20)">
<path id="Vector" d="M24.82 -5.17102C22.5592 -5.17102 20.6834 -3.29516 20.6834 -1.03433V3.10236H8.27329C7.19315 3.10236 6.09199 3.49809 5.31216 4.27792C4.53233 5.05775 4.1366 6.15892 4.1366 7.23905V89.9729C4.1366 91.053 4.53233 92.1542 5.31216 92.934C6.09199 93.7138 7.19315 94.1096 8.27329 94.1096H95.1438C96.2239 94.1096 97.3251 93.7138 98.1049 92.934C98.8847 92.1542 99.2805 91.053 99.2805 89.9729V7.23905C99.2805 6.15892 98.8847 5.05775 98.1049 4.27792C97.3251 3.49809 96.2239 3.10236 95.1438 3.10236H82.7337V-1.03433C82.7337 -3.29516 80.8579 -5.17102 78.597 -5.17102H74.4603C72.1995 -5.17102 70.3236 -3.29516 70.3236 -1.03433V3.10236H33.0934V-1.03433C33.0934 -3.29516 31.2176 -5.17102 28.9567 -5.17102H24.82ZM24.82 -1.03433H28.9567V11.3757H24.82V-1.03433ZM74.4603 -1.03433H78.597V11.3757H74.4603V-1.03433ZM8.27329 7.23905H20.6834V11.3757C20.6834 13.6366 22.5592 15.5124 24.82 15.5124H28.9567C31.2176 15.5124 33.0934 13.6366 33.0934 11.3757V7.23905H70.3236V11.3757C70.3236 13.6366 72.1995 15.5124 74.4603 15.5124H78.597C80.8579 15.5124 82.7337 13.6366 82.7337 11.3757V7.23905H95.1438V21.7175H8.27329V7.23905ZM8.27329 25.8542H95.1438V89.9729H8.27329V25.8542ZM20.6834 34.1275V36.1959V81.6995H62.0503H82.7337V34.1275H20.6834ZM24.82 38.2642H35.1618V48.606H24.82V38.2642ZM39.2985 38.2642H49.6402V48.606H39.2985V38.2642ZM53.7769 38.2642H64.1186V48.606H53.7769V38.2642ZM68.2553 38.2642H78.597V48.606H68.2553V38.2642ZM24.82 52.7426H35.1618V63.0844H24.82V52.7426ZM39.2985 52.7426H49.6402V63.0844H39.2985V52.7426ZM53.7769 52.7426H64.1186V63.0844H53.7769V52.7426ZM68.2553 52.7426H78.597V63.0844H68.2553V52.7426ZM24.82 67.2211H35.1618V77.5628H24.82V67.2211ZM39.2985 67.2211H49.6402V77.5628H39.2985V67.2211ZM53.7769 67.2211H64.1186V77.5628H62.0503H53.7769V67.2211ZM68.2553 67.2211H78.597V77.5628H68.2553V67.2211Z" fill="black"/>
</g>
<defs>
<clipPath id="clip0_1314_20">
<rect width="103.417" height="103.417" fill="white"/>
</clipPath>
</defs>
</svg>
