<svg width="104" height="104" viewBox="0 0 104 104" fill="none" xmlns="http://www.w3.org/2000/svg">
<g id="map" clip-path="url(#clip0_1314_5)">
<g id="Group">
<path id="Vector" d="M102.49 2.18894C101.916 1.84038 101.2 1.82506 100.608 2.13723L68.9448 18.9004L37.2838 2.13723C37.2589 2.12382 37.2302 2.11999 37.2053 2.1085C37.1134 2.06445 37.0195 2.03189 36.9238 2.00317C36.8701 1.98785 36.8184 1.97061 36.7648 1.95912C36.6595 1.93805 36.5522 1.93039 36.4431 1.92656C36.3952 1.92465 36.3473 1.9189 36.2975 1.92082C36.1941 1.92656 36.0926 1.94571 35.9911 1.96869C35.9336 1.98019 35.8762 1.98785 35.8206 2.00508C35.8072 2.00891 35.7938 2.00891 35.7823 2.01274L1.30992 13.5035C0.526631 13.764 -3.05176e-05 14.4956 -3.05176e-05 15.321V97.6718C-3.05176e-05 98.2866 0.2949 98.8649 0.796665 99.2269C1.12607 99.4624 1.51867 99.5869 1.9151 99.5869C2.11811 99.5869 2.32303 99.5544 2.52029 99.4873L36.3147 88.2225L68.2151 101.358C68.242 101.37 68.2726 101.366 68.2994 101.376C68.5101 101.45 68.7246 101.502 68.9448 101.502C69.1172 101.502 69.2876 101.473 69.4542 101.427C69.5079 101.412 69.5577 101.387 69.6113 101.368C69.6879 101.339 69.7683 101.318 69.8411 101.28L102.398 84.0437C103.025 83.7124 103.417 83.0593 103.417 82.3507V3.83021C103.417 3.15799 103.065 2.53557 102.49 2.18894ZM3.83024 16.7018L34.4724 6.48841V58.1817C33.6489 58.3311 32.8369 58.4996 32.0517 58.7065C31.029 58.9784 30.42 60.026 30.6919 61.0487C30.9198 61.9067 31.6935 62.4735 32.5419 62.4735C32.7028 62.4735 32.8694 62.4525 33.0341 62.4103C33.4938 62.2878 33.9955 62.2265 34.4724 62.1269V84.8021L3.83024 95.0136V16.7018ZM38.3027 61.5907C38.9174 61.5428 39.513 61.4643 40.1431 61.4509C41.2003 61.4279 42.0391 60.5527 42.018 59.4955C41.995 58.4518 41.1428 57.6206 40.1029 57.6206C40.0895 57.6206 40.0742 57.6206 40.0607 57.6206C39.4671 57.634 38.8829 57.6665 38.3027 57.7068V7.01124L67.0297 22.2193V62.8087C65.6623 62.7493 64.2719 62.5884 62.8145 62.3069C61.7726 62.102 60.771 62.7838 60.5699 63.8218C60.3688 64.8598 61.0487 65.8652 62.0867 66.0663C63.7835 66.3957 65.4305 66.5566 67.0316 66.6198V96.7276L38.3027 84.8979V61.5907ZM99.587 81.1959L70.8599 96.404V66.413C71.5724 66.0893 72.0473 65.3616 71.9841 64.5361C71.9286 63.8199 71.469 63.2453 70.8599 62.9638V22.2193L99.587 7.01124V81.1959Z" fill="black"/>
<path id="Vector_2" d="M21.0664 17.2362C15.7864 17.2362 11.4908 21.5319 11.4908 26.8119C11.4908 31.4369 14.7867 35.3036 19.1513 36.1941V40.2178C19.1513 41.2769 20.0093 42.133 21.0664 42.133C22.1236 42.133 22.9816 41.2769 22.9816 40.2178V36.1941C27.3462 35.3036 30.6421 31.4369 30.6421 26.8119C30.6421 21.5319 26.3465 17.2362 21.0664 17.2362ZM21.0664 32.5573C17.8988 32.5573 15.321 29.9795 15.321 26.8119C15.321 23.6442 17.8988 21.0665 21.0664 21.0665C24.2341 21.0665 26.8118 23.6442 26.8118 26.8119C26.8118 29.9795 24.2341 32.5573 21.0664 32.5573Z" fill="black"/>
<path id="Vector_3" d="M86.3152 52.9976C86.545 53.0876 86.7805 53.1278 87.0123 53.1278C87.7783 53.1278 88.5003 52.6663 88.7972 51.9098C89.6973 49.6135 90.4193 47.0204 90.9479 44.2033C91.1432 43.1653 90.4576 42.1656 89.4177 41.9683C88.372 41.796 87.3781 42.4605 87.1827 43.5004C86.7001 46.082 86.0432 48.4415 85.2312 50.5156C84.8463 51.498 85.3308 52.6107 86.3152 52.9976Z" fill="black"/>
<path id="Vector_4" d="M24.5233 61.9391C22.2118 63.3889 20.1281 65.2044 18.3279 67.3398C17.6461 68.148 17.7495 69.3565 18.5577 70.0382C18.9177 70.3408 19.3563 70.4883 19.791 70.4883C20.3369 70.4883 20.8769 70.2566 21.2561 69.8084C22.7997 67.9776 24.5827 66.4206 26.5572 65.1853C27.4535 64.6222 27.7235 63.4406 27.1624 62.5443C26.6013 61.648 25.4177 61.3761 24.5233 61.9391Z" fill="black"/>
<path id="Vector_5" d="M16.5218 73.3036C15.5604 72.8631 14.4228 73.2787 13.9804 74.2401C12.0155 78.5032 11.5291 81.9447 11.508 82.0902C11.3644 83.1378 12.0959 84.1011 13.1435 84.2448C13.2316 84.2582 13.3216 84.2639 13.4078 84.2639C14.3481 84.2639 15.1678 83.5706 15.3038 82.615C15.3076 82.5844 15.7462 79.5565 17.4583 75.8469C17.9007 74.8836 17.4813 73.7479 16.5218 73.3036Z" fill="black"/>
<path id="Vector_6" d="M77.4155 64.5957C77.7085 64.5957 78.0073 64.5287 78.285 64.3869C80.7593 63.121 82.9407 61.3246 84.7658 59.0514C85.4284 58.2259 85.2963 57.0194 84.4709 56.3587C83.6474 55.7018 82.4408 55.8301 81.7782 56.6536C80.292 58.5056 78.5301 59.9591 76.5403 60.9761C75.5981 61.4587 75.2246 62.6116 75.7072 63.5539C76.0481 64.2146 76.7203 64.5957 77.4155 64.5957Z" fill="black"/>
<path id="Vector_7" d="M55.8645 60.1964C55.0199 59.8421 54.5258 59.597 54.4933 59.5797C54.3688 59.5165 54.2366 59.4648 54.1007 59.4303C52.0266 58.8979 49.9831 58.4766 48.0239 58.1778C46.9802 58.0131 46.0016 58.7351 45.8407 59.7808C45.6817 60.8265 46.3999 61.8051 47.4456 61.9641C49.219 62.236 51.0709 62.6152 52.9554 63.094C53.212 63.2166 53.7023 63.4483 54.3879 63.7336C54.6292 63.8351 54.8801 63.8811 55.1253 63.8811C55.8741 63.8811 56.5865 63.4406 56.8929 62.7052C57.3009 61.7247 56.8412 60.6024 55.8645 60.1964Z" fill="black"/>
<path id="Vector_8" d="M89.864 38.1707C89.9061 38.1726 89.9463 38.1745 89.9884 38.1745C90.9901 38.1745 91.8327 37.397 91.8978 36.38C92.0166 34.5396 92.0759 32.5919 92.0759 30.5963C92.0759 29.9318 92.0702 29.2576 92.0568 28.5701C92.0376 27.511 91.1184 26.7067 90.1072 26.6895C89.05 26.7086 88.2074 27.5819 88.2265 28.6391C88.238 29.3036 88.2457 29.9567 88.2457 30.5963C88.2457 32.5115 88.1882 34.3749 88.0752 36.1368C88.0082 37.192 88.8087 38.1017 89.864 38.1707Z" fill="black"/>
<path id="Vector_9" d="M15.8822 54.9779C16.2556 55.3513 16.7459 55.539 17.2362 55.539C17.7264 55.539 18.2167 55.3513 18.5902 54.9779L21.0664 52.5016L23.5427 54.9779C23.9162 55.3513 24.4064 55.539 24.8967 55.539C25.387 55.539 25.8773 55.3513 26.2507 54.9779C26.9995 54.2291 26.9995 53.0187 26.2507 52.2699L23.7744 49.7936L26.2507 47.3173C26.9995 46.5685 26.9995 45.3582 26.2507 44.6093C25.5019 43.8605 24.2915 43.8605 23.5427 44.6093L21.0664 47.0856L18.5902 44.6093C17.8414 43.8605 16.631 43.8605 15.8822 44.6093C15.1334 45.3582 15.1334 46.5685 15.8822 47.3173L18.3584 49.7936L15.8822 52.2699C15.1334 53.0168 15.1334 54.2291 15.8822 54.9779Z" fill="black"/>
</g>
</g>
<defs>
<clipPath id="clip0_1314_5">
<rect width="103.417" height="103.417" fill="white"/>
</clipPath>
</defs>
</svg>
