<svg width="166" height="166" viewBox="0 0 166 166" fill="none" xmlns="http://www.w3.org/2000/svg">
<g id="Motorcycle">
<path id="Vector" d="M88.9389 37.2303C88.6648 37.2264 88.3927 37.2771 88.1383 37.3793C87.884 37.4815 87.6525 37.6332 87.4573 37.8257C87.2621 38.0181 87.1071 38.2474 87.0014 38.5003C86.8956 38.7532 86.8411 39.0245 86.8411 39.2987C86.8411 39.5728 86.8956 39.8441 87.0014 40.097C87.1071 40.3499 87.2621 40.5792 87.4573 40.7716C87.6525 40.9641 87.884 41.1158 88.1383 41.218C88.3927 41.3202 88.6648 41.3709 88.9389 41.367H98.8282C99.6047 41.367 100.31 41.7953 100.666 42.486L107.679 56.0716C105.799 53.443 102.739 51.7087 99.2806 51.7087H78.5972C71.8891 51.7087 66.1061 55.7414 63.5128 61.501C63.0246 61.1782 62.4944 60.9071 61.9332 60.7012L61.905 60.6689C61.5851 60.3148 61.1527 60.0821 60.6809 60.0104L34.4267 55.9504C34.2822 55.9297 34.136 55.9243 33.9904 55.9343C33.7122 55.8956 33.4525 55.8454 33.0936 55.8454C28.5487 55.8454 24.8202 59.5739 24.8202 64.1188V68.5585C16.8852 69.6203 9.8758 73.6589 5.01738 79.5465C4.84439 79.7561 4.71436 79.9977 4.63473 80.2575C4.5551 80.5173 4.52743 80.7902 4.5533 81.0607C4.57916 81.3312 4.65806 81.5939 4.78548 81.8339C4.91289 82.0739 5.08634 82.2865 5.29591 82.4594C5.50548 82.6324 5.74707 82.7624 6.00689 82.842C6.2667 82.9216 6.53964 82.9492 6.81013 82.9233C7.08062 82.8974 7.34336 82.8185 7.58334 82.691C7.82332 82.5635 8.03584 82.3901 8.20877 82.1805C13.1429 76.2011 20.5904 72.3922 28.9569 72.3922H42.1547L38.1513 80.3989C35.3063 79.249 32.2104 78.5972 28.9569 78.5972C15.2706 78.5972 4.13672 89.7311 4.13672 103.417C4.13672 117.104 15.2706 128.237 28.9569 128.237C42.6328 128.237 53.7585 117.119 53.773 103.446L49.5838 104.5C49.015 115.4 39.9956 124.101 28.9569 124.101C17.552 124.101 8.27341 114.822 8.27341 103.417C8.27341 92.0125 17.552 82.7339 28.9569 82.7339C31.545 82.7339 33.9991 83.2623 36.2809 84.1397L31.615 93.4715C30.7645 93.2356 29.8838 93.0756 28.9569 93.0756C23.2544 93.0756 18.6151 97.7149 18.6151 103.417C18.6151 109.12 23.2544 113.759 28.9569 113.759C33.2859 113.759 36.9922 111.078 38.531 107.295L31.3888 109.097C30.6421 109.422 29.8256 109.622 28.9569 109.622C25.5358 109.622 22.7518 106.838 22.7518 103.417C22.7518 99.9963 25.5358 97.2123 28.9569 97.2123C29.214 97.2123 29.4593 97.2585 29.7083 97.2891L27.0824 102.541C27.0416 102.624 27.0065 102.711 26.9774 102.799C26.9718 102.814 26.9665 102.829 26.9612 102.844C26.9507 102.881 26.9413 102.919 26.933 102.957C26.9208 103 26.91 103.043 26.9006 103.086C26.8962 103.11 26.8921 103.134 26.8885 103.159C26.8834 103.198 26.8793 103.237 26.8764 103.276C26.8729 103.31 26.8702 103.343 26.8683 103.377C26.8664 103.404 26.8651 103.431 26.8643 103.458C26.8644 103.571 26.8738 103.685 26.8926 103.797C26.8963 103.816 26.9004 103.835 26.9047 103.854C26.9262 103.968 26.9573 104.08 26.9976 104.189C27.009 104.219 27.0211 104.248 27.0339 104.278C27.0491 104.315 27.0652 104.351 27.0824 104.387C27.0916 104.405 27.101 104.422 27.1107 104.439C27.1359 104.486 27.1628 104.532 27.1915 104.577C27.1995 104.589 27.2075 104.601 27.2157 104.613C27.2462 104.66 27.2785 104.706 27.3127 104.75C27.3194 104.757 27.3261 104.764 27.3329 104.771C27.4144 104.87 27.505 104.962 27.6036 105.045C27.6129 105.052 27.6223 105.059 27.6318 105.066C27.6736 105.101 27.7167 105.135 27.7611 105.167C27.7705 105.173 27.7799 105.18 27.7894 105.187C27.954 105.297 28.1336 105.382 28.3226 105.441C28.3347 105.445 28.3468 105.449 28.359 105.453C28.4176 105.469 28.4769 105.483 28.5367 105.494C28.5475 105.495 28.5583 105.497 28.569 105.498C28.6252 105.508 28.6819 105.516 28.7387 105.522C28.7401 105.522 28.7414 105.522 28.7428 105.522C28.8031 105.529 28.8638 105.533 28.9245 105.534C28.9313 105.534 28.938 105.534 28.9447 105.534C29.1124 105.533 29.2792 105.511 29.4416 105.47H29.4457L29.478 105.461C29.482 105.46 29.4861 105.459 29.4901 105.457L59.0448 97.992L62.1473 105.36C63.7609 109.189 67.5262 111.691 71.6811 111.691H89.0803C93.5833 111.691 97.5862 108.759 98.9413 104.464L109.069 72.3922H115.827C115.917 72.3925 116.006 72.3871 116.094 72.376L118.417 76.8763C115.397 78.7029 112.701 81.0091 110.471 83.7196C110.291 83.9284 110.154 84.1712 110.069 84.4336C109.984 84.696 109.952 84.9728 109.976 85.2476C109.999 85.5224 110.078 85.7897 110.206 86.0338C110.335 86.278 110.51 86.4939 110.724 86.669C110.937 86.8442 111.183 86.9749 111.447 87.0535C111.711 87.1322 111.989 87.1572 112.263 87.127C112.537 87.0969 112.803 87.0122 113.044 86.878C113.284 86.7437 113.496 86.5627 113.666 86.3454C115.543 84.0647 117.788 82.1049 120.307 80.5444L132.604 104.367C132.729 104.608 132.9 104.823 133.108 104.998C133.315 105.173 133.555 105.306 133.814 105.388C134.073 105.471 134.345 105.502 134.616 105.479C134.887 105.456 135.15 105.38 135.392 105.256C135.633 105.131 135.848 104.96 136.023 104.752C136.198 104.545 136.331 104.305 136.414 104.046C136.496 103.787 136.527 103.514 136.504 103.244C136.481 102.973 136.405 102.709 136.281 102.468L133.614 97.3012C133.888 97.2639 134.159 97.2123 134.442 97.2123C137.864 97.2123 140.648 99.9963 140.648 103.417C140.648 106.838 137.864 109.622 134.442 109.622C131.716 109.622 129.422 107.842 128.593 105.393L125.212 98.8484C124.521 100.232 124.101 101.771 124.101 103.417C124.101 109.12 128.74 113.759 134.442 113.759C140.145 113.759 144.784 109.12 144.784 103.417C144.784 97.7149 140.145 93.0756 134.442 93.0756C133.468 93.0756 132.544 93.2481 131.655 93.5079L126.848 84.1963C129.2 83.2581 131.759 82.7339 134.442 82.7339C145.847 82.7339 155.126 92.0125 155.126 103.417C155.126 114.822 145.847 124.101 134.442 124.101C123.038 124.101 113.759 114.822 113.759 103.417C113.759 97.6487 116.138 92.4284 119.96 88.6723L118.001 84.875C112.877 89.4253 109.622 96.0416 109.622 103.417C109.622 117.104 120.756 128.237 134.442 128.237C148.129 128.237 159.263 117.104 159.263 103.417C159.263 89.7311 148.129 78.5972 134.442 78.5972C131.074 78.5972 127.875 79.2933 124.949 80.5201L123.996 78.6699C127.209 77.3118 130.727 76.5289 134.442 76.5289C134.717 76.5327 134.989 76.4821 135.243 76.3799C135.497 76.2777 135.729 76.126 135.924 75.9335C136.119 75.7411 136.274 75.5117 136.38 75.2589C136.486 75.006 136.54 74.7346 136.54 74.4605C136.54 74.1864 136.486 73.915 136.38 73.6622C136.274 73.4093 136.119 73.18 135.924 72.9875C135.729 72.7951 135.497 72.6433 135.243 72.5411C134.989 72.4389 134.717 72.3883 134.442 72.3922C130.053 72.3922 125.892 73.345 122.101 74.9938L117.536 66.1548C117.658 66.1603 117.773 66.1871 117.896 66.1871H119.964C122.225 66.1871 124.101 64.3113 124.101 62.0505V53.7771C124.101 51.5162 122.225 49.6404 119.964 49.6404H117.896C115.002 49.6404 112.448 51.1588 110.968 53.4297L104.342 40.5914C103.28 38.5312 101.146 37.2303 98.8282 37.2303H88.9389ZM117.896 53.7771H119.964V62.0505H117.896C116.49 62.0505 115.268 61.368 114.523 60.3174L114.03 59.3559C113.865 58.9062 113.759 58.4255 113.759 57.9138C113.759 55.6041 115.586 53.7771 117.896 53.7771ZM78.5972 55.8454H99.2806C102.732 55.8454 105.486 58.5994 105.486 62.0505V68.2555C104.937 68.2555 104.411 68.4734 104.023 68.8613C103.635 69.2492 103.417 69.7753 103.417 70.3238C103.418 70.7471 103.548 71.16 103.791 71.5067C104.034 71.8535 104.377 72.1174 104.775 72.2629L94.9985 103.219C94.1818 105.808 91.7958 107.554 89.0803 107.554H71.6811C69.1802 107.554 66.9327 106.063 65.9609 103.757L61.8444 93.9765L74.1332 71.4428C74.1621 71.3955 74.1891 71.3469 74.214 71.2974C74.2209 71.2854 74.2276 71.2732 74.2342 71.261C74.2412 71.245 74.2479 71.2288 74.2544 71.2126C74.2777 71.1676 74.2992 71.1218 74.3191 71.0752C74.3204 71.0712 74.3218 71.0671 74.3231 71.0631C74.4486 70.7471 74.4943 70.405 74.4561 70.0671C74.4179 69.7292 74.2969 69.406 74.104 69.126C73.9111 68.8459 73.6521 68.6178 73.35 68.4618C73.0479 68.3057 72.7119 68.2265 72.3719 68.2312C72.0348 68.2377 71.7043 68.3264 71.4093 68.4898C71.1143 68.6531 70.8636 68.8861 70.6793 69.1685C70.6697 69.1805 70.6603 69.1926 70.651 69.2048C70.6496 69.2075 70.6483 69.2102 70.647 69.2129C70.6387 69.2263 70.6306 69.2397 70.6227 69.2533C70.6073 69.2799 70.5925 69.3068 70.5783 69.3341C70.5686 69.3515 70.5592 69.369 70.55 69.3866L59.7922 89.1086L52.755 72.3922H63.7713C64.0705 72.4431 64.3773 72.4277 64.6698 72.3468C64.9623 72.2659 65.2335 72.1217 65.4641 71.9243C65.6946 71.7269 65.8789 71.4812 66.0039 71.2046C66.1288 70.928 66.1914 70.6273 66.1871 70.3238V68.2555C66.1871 61.3771 71.7188 55.8454 78.5972 55.8454ZM108.98 58.5965L109.622 59.8367V59.9821H109.695L113.965 68.2555H109.622V62.0505C109.622 60.8344 109.37 59.6827 108.98 58.5965ZM35.473 59.5539L34.766 60.1922L59.3236 63.9855L58.8671 63.4765C59.2099 63.8578 59.6821 64.0982 60.1921 64.1511C61.25 64.2593 62.0504 65.0976 62.0504 66.1871V68.2555H49.9554C49.838 68.2358 49.719 68.2264 49.5999 68.2272C49.4997 68.2294 49.3998 68.2388 49.301 68.2555H28.9569V64.1188C28.9569 61.8091 30.7839 59.9821 33.0936 59.9821C33.2426 59.9821 33.4558 60.0054 33.7561 60.0548C34.0615 60.1051 34.3743 60.0862 34.6715 59.9995C34.9686 59.9128 35.2425 59.7605 35.473 59.5539ZM80.6655 68.2555C80.1169 68.2555 79.5909 68.4734 79.203 68.8613C78.8151 69.2492 78.5972 69.7753 78.5972 70.3238C78.5972 70.8724 78.8151 71.3985 79.203 71.7864C79.5909 72.1743 80.1169 72.3922 80.6655 72.3922C81.2141 72.3922 81.7402 72.1743 82.128 71.7864C82.5159 71.3985 82.7338 70.8724 82.7338 70.3238C82.7338 69.7753 82.5159 69.2492 82.128 68.8613C81.7402 68.4734 81.2141 68.2555 80.6655 68.2555ZM88.9389 68.2555C88.3903 68.2555 87.8642 68.4734 87.4763 68.8613C87.0885 69.2492 86.8705 69.7753 86.8705 70.3238C86.8705 70.8724 87.0885 71.3985 87.4763 71.7864C87.8642 72.1743 88.3903 72.3922 88.9389 72.3922C89.4874 72.3922 90.0135 72.1743 90.4014 71.7864C90.7893 71.3985 91.0072 70.8724 91.0072 70.3238C91.0072 69.7753 90.7893 69.2492 90.4014 68.8613C90.0135 68.4734 89.4874 68.2555 88.9389 68.2555ZM97.2123 68.2555C96.6637 68.2555 96.1376 68.4734 95.7497 68.8613C95.3618 69.2492 95.1439 69.7753 95.1439 70.3238C95.1439 70.8724 95.3618 71.3985 95.7497 71.7864C96.1376 72.1743 96.6637 72.3922 97.2123 72.3922C97.7608 72.3922 98.2869 72.1743 98.6748 71.7864C99.0627 71.3985 99.2806 70.8724 99.2806 70.3238C99.2806 69.7753 99.0627 69.2492 98.6748 68.8613C98.2869 68.4734 97.7608 68.2555 97.2123 68.2555ZM46.7802 72.3922H48.2668L57.4209 94.134L52.3954 95.4025C50.9592 91.2002 48.4471 87.4957 45.1522 84.6487L43.2333 88.4865C45.5193 90.6742 47.283 93.3846 48.3759 96.4165L32.8027 100.351L46.7802 72.3922ZM78.5972 76.5289C78.3231 76.525 78.051 76.5756 77.7966 76.6778C77.5423 76.78 77.3108 76.9318 77.1156 77.1242C76.9204 77.3167 76.7654 77.546 76.6596 77.7989C76.5538 78.0517 76.4994 78.3231 76.4994 78.5972C76.4994 78.8713 76.5538 79.1427 76.6596 79.3956C76.7654 79.6484 76.9204 79.8778 77.1156 80.0702C77.3108 80.2626 77.5423 80.4144 77.7966 80.5166C78.051 80.6188 78.3231 80.6694 78.5972 80.6656H95.1439C95.418 80.6694 95.6901 80.6188 95.9445 80.5166C96.1988 80.4144 96.4303 80.2626 96.6255 80.0702C96.8207 79.8778 96.9757 79.6484 97.0815 79.3956C97.1872 79.1427 97.2417 78.8713 97.2417 78.5972C97.2417 78.3231 97.1872 78.0517 97.0815 77.7989C96.9757 77.546 96.8207 77.3167 96.6255 77.1242C96.4303 76.9318 96.1988 76.78 95.9445 76.6778C95.6901 76.5756 95.418 76.525 95.1439 76.5289H78.5972ZM80.6655 82.7339C80.3914 82.73 80.1193 82.7807 79.865 82.8829C79.6106 82.9851 79.3791 83.1368 79.1839 83.3293C78.9888 83.5217 78.8338 83.751 78.728 84.0039C78.6222 84.2568 78.5677 84.5281 78.5677 84.8022C78.5677 85.0764 78.6222 85.3477 78.728 85.6006C78.8338 85.8535 78.9888 86.0828 79.1839 86.2752C79.3791 86.4677 79.6106 86.6194 79.865 86.7216C80.1193 86.8238 80.3914 86.8745 80.6655 86.8706H93.0756C93.3497 86.8745 93.6218 86.8238 93.8761 86.7216C94.1305 86.6194 94.3619 86.4677 94.5571 86.2752C94.7523 86.0828 94.9073 85.8535 95.0131 85.6006C95.1189 85.3477 95.1734 85.0764 95.1734 84.8022C95.1734 84.5281 95.1189 84.2568 95.0131 84.0039C94.9073 83.751 94.7523 83.5217 94.5571 83.3293C94.3619 83.1368 94.1305 82.9851 93.8761 82.8829C93.6218 82.7807 93.3497 82.73 93.0756 82.7339H80.6655ZM75.4946 88.9389C71.521 88.9389 68.2554 92.2045 68.2554 96.1781C68.2554 100.152 71.521 103.417 75.4946 103.417H86.8705C90.2729 103.417 93.0756 100.615 93.0756 97.2123C93.0756 94.6362 91.2949 92.7226 89.0399 91.795C88.7301 91.4169 88.2965 91.1608 87.8158 91.0719L77.0903 89.1248C76.6119 89.0178 76.0763 88.9389 75.4946 88.9389ZM85.3839 92.9625C85.3407 93.4887 85.5003 94.0115 85.83 94.4238C86.1597 94.8361 86.6346 95.1068 87.1574 95.1803C88.1742 95.3226 88.9389 96.1472 88.9389 97.2123C88.9389 98.381 88.0392 99.2807 86.8705 99.2807H75.4946C73.7555 99.2807 72.3921 97.9172 72.3921 96.1781C72.3921 94.4391 73.7555 93.0756 75.4946 93.0756C75.6989 93.0756 75.9234 93.1019 76.1854 93.1605C76.2136 93.1678 76.2419 93.1745 76.2703 93.1807L85.2304 94.8087L85.3839 92.9625Z" fill="black"/>
</g>
</svg>
