<svg width="80" height="80" viewBox="0 0 80 80" fill="none" xmlns="http://www.w3.org/2000/svg">
<g id="facebook-logo-button" clip-path="url(#clip0_1088_142)">
<g id="Group">
<g id="Group_2">
<path id="Vector" d="M40 0C17.9441 0 0 17.9441 0 40C0 62.0543 17.9441 80 40 80C62.0543 80 80 62.0543 80 40C80 17.9441 62.0575 0 40 0ZM49.9476 41.4082H43.4399C43.4399 51.8054 43.4399 64.6032 43.4399 64.6032H33.7968C33.7968 64.6032 33.7968 51.9294 33.7968 41.4082H29.2129V33.2103H33.7968V27.9078C33.7968 24.1102 35.6014 18.1761 43.5286 18.1761L50.6743 18.2035V26.1613C50.6743 26.1613 46.3321 26.1613 45.4878 26.1613C44.6435 26.1613 43.4432 26.5834 43.4432 28.3944V33.212H50.7903L49.9476 41.4082Z" fill="white"/>
</g>
</g>
</g>
<defs>
<clipPath id="clip0_1088_142">
<rect width="80" height="80" fill="white"/>
</clipPath>
</defs>
</svg>
