<svg width="80" height="80" viewBox="0 0 80 80" fill="none" xmlns="http://www.w3.org/2000/svg">
<g id="twitter-logo-button" clip-path="url(#clip0_1088_168)">
<g id="Group">
<g id="Group_2">
<path id="Vector" d="M40 0C17.9441 0 0 17.9441 0 40C0 62.0543 17.9441 80 40 80C62.0543 80 80 62.0543 80 40C80 17.9441 62.0575 0 40 0ZM57.8442 30.8451C57.8619 31.2414 57.8716 31.641 57.8716 32.0406C57.8716 44.2069 48.6135 58.2309 31.6749 58.2309C26.4755 58.2309 21.6354 56.7115 17.5622 54.0981C18.2824 54.1835 19.0155 54.227 19.7583 54.227C24.0731 54.227 28.0416 52.7544 31.1931 50.286C27.1651 50.2119 23.7638 47.5501 22.5924 43.8911C23.1531 43.9974 23.7316 44.057 24.3229 44.057C25.1623 44.057 25.9776 43.9475 26.7494 43.7364C22.5377 42.8921 19.3652 39.1718 19.3652 34.7088C19.3652 34.6701 19.3652 34.6298 19.3668 34.5928C20.6074 35.2808 22.0269 35.6964 23.535 35.7432C21.0666 34.0949 19.4409 31.2753 19.4409 28.0819C19.4409 26.3933 19.8937 24.8111 20.6864 23.4512C25.2252 29.0228 32.0116 32.6867 39.6616 33.0734C39.5037 32.3983 39.4248 31.6974 39.4248 30.974C39.4248 25.8906 43.5463 21.7675 48.6297 21.7675C51.2785 21.7675 53.6679 22.8857 55.35 24.6741C57.4494 24.2617 59.4151 23.4979 61.1987 22.4394C60.5059 24.5903 59.051 26.3933 57.1449 27.534C59.0091 27.3117 60.7879 26.8187 62.4329 26.0856C61.2052 27.9288 59.6439 29.5513 57.8442 30.8451Z" fill="white"/>
</g>
</g>
</g>
<defs>
<clipPath id="clip0_1088_168">
<rect width="80" height="80" fill="white"/>
</clipPath>
</defs>
</svg>
